<mxfile host="app.diagrams.net" modified="2023-11-13T11:43:44.566Z" agent="Mozilla/5.0 (Windows NT 10.0; Win64; x64) AppleWebKit/537.36 (KHTML, like Gecko) Chrome/119.0.0.0 Safari/537.36" etag="1zAh4wx6_CHr361yTApl" version="22.1.0" type="github">
  <diagram name="Page-1" id="3hc5dlDtmq4grsfTbr6o">
    <mxGraphModel dx="1050" dy="534" grid="1" gridSize="10" guides="1" tooltips="1" connect="1" arrows="1" fold="1" page="1" pageScale="1" pageWidth="850" pageHeight="1100" math="0" shadow="0">
      <root>
        <mxCell id="0" />
        <mxCell id="1" parent="0" />
        <mxCell id="5K6W6YCZMQr46DYPRlVu-1" value="" style="rounded=0;whiteSpace=wrap;html=1;fillColor=#fff2cc;strokeColor=#d6b656;" vertex="1" parent="1">
          <mxGeometry x="355" y="130" width="120" height="130" as="geometry" />
        </mxCell>
        <mxCell id="5K6W6YCZMQr46DYPRlVu-2" value="Seat: checkbox" style="text;html=1;strokeColor=none;fillColor=none;align=center;verticalAlign=middle;whiteSpace=wrap;rounded=0;fontStyle=1" vertex="1" parent="1">
          <mxGeometry x="370" y="150" width="90" height="30" as="geometry" />
        </mxCell>
        <mxCell id="5K6W6YCZMQr46DYPRlVu-4" value="- Checked&lt;br&gt;- Value&lt;br&gt;- Taken" style="text;html=1;strokeColor=none;fillColor=none;align=left;verticalAlign=middle;whiteSpace=wrap;rounded=0;fontStyle=2" vertex="1" parent="1">
          <mxGeometry x="360" y="200" width="65" height="60" as="geometry" />
        </mxCell>
        <mxCell id="5K6W6YCZMQr46DYPRlVu-5" value="" style="rounded=0;whiteSpace=wrap;html=1;gradientColor=none;" vertex="1" parent="1">
          <mxGeometry x="175" y="130" width="160" height="100" as="geometry" />
        </mxCell>
        <mxCell id="5K6W6YCZMQr46DYPRlVu-6" value="Number Seats" style="text;html=1;strokeColor=none;fillColor=none;align=center;verticalAlign=middle;whiteSpace=wrap;rounded=0;fontStyle=1" vertex="1" parent="1">
          <mxGeometry x="200" y="140" width="110" height="30" as="geometry" />
        </mxCell>
        <mxCell id="5K6W6YCZMQr46DYPRlVu-7" value="&lt;div&gt;- Seats input: User input&lt;/div&gt;&lt;div&gt;- Seat selected: Array of Seat&lt;/div&gt;&lt;div&gt;&lt;br&gt;&lt;/div&gt;&lt;div&gt;&amp;nbsp;&lt;/div&gt;&lt;div&gt;&lt;br&gt;&lt;/div&gt;" style="text;html=1;strokeColor=none;fillColor=none;align=left;verticalAlign=middle;whiteSpace=wrap;rounded=0;" vertex="1" parent="1">
          <mxGeometry x="175" y="160" width="160" height="90" as="geometry" />
        </mxCell>
      </root>
    </mxGraphModel>
  </diagram>
</mxfile>
